<svg width="48" height="16" viewBox="0 0 48 16" fill="none" xmlns="http://www.w3.org/2000/svg">
<g clip-path="url(#clip0_1_3)">
<rect width="48" height="16" fill="white"/>
<g clip-path="url(#clip1_1_3)">
<path fill-rule="evenodd" clip-rule="evenodd" d="M-0.0258179 -0.0304108C15.9742 -0.0304108 31.9742 -0.0304108 47.9742 -0.0304108C47.9742 5.96959 47.9742 11.9696 47.9742 17.9696C31.9742 17.9696 15.9742 17.9696 -0.0258179 17.9696C-0.0258179 11.9696 -0.0258179 5.96959 -0.0258179 -0.0304108Z" fill="#FDFDFD"/>
<path fill-rule="evenodd" clip-rule="evenodd" d="M23.5613 0.212836C23.8074 0.297301 24.0655 0.337841 24.3355 0.334457C24.5818 0.426993 24.8399 0.487804 25.1097 0.51689C25.538 0.627815 25.9682 0.749436 26.4 0.881755C26.504 0.968337 26.6244 1.00888 26.7613 1.00338C26.7785 1.00338 26.7957 1.00338 26.8129 1.00338C27.124 1.17979 27.4509 1.32168 27.7936 1.42905C30.4617 2.58488 32.9047 4.19636 35.1226 6.26351C35.5841 6.35108 36.0486 6.40174 36.5161 6.41554C36.7623 6.50001 37.0203 6.54057 37.2903 6.53716C38.7745 6.70646 40.2541 6.9092 41.729 7.14527C41.9083 7.2076 42.0976 7.24816 42.2968 7.26689C43.5056 7.47602 44.6927 7.79023 45.8581 8.20946C46.0906 8.31582 46.297 8.46784 46.4774 8.66554C47.0407 9.51002 47.4106 10.4627 47.5871 11.5236C47.5612 12.2235 47.3891 12.8722 47.071 13.4696C47.0571 11.8431 46.713 10.3228 46.0387 8.90878C45.7666 8.56843 45.4311 8.37584 45.0323 8.33108C42.5348 7.8494 40.023 7.51494 37.4968 7.3277C37.0929 7.26738 36.68 7.22682 36.2581 7.20608C35.7407 7.17555 35.2246 7.1249 34.7097 7.05405C32.4118 5.12228 29.9515 3.52093 27.329 2.25C26.7011 1.95929 26.0645 1.72619 25.4194 1.55067C25.2952 1.47355 25.1576 1.43301 25.0065 1.42905C24.972 1.42905 24.9377 1.42905 24.9032 1.42905C24.8206 1.33334 24.7173 1.2928 24.5936 1.30743C24.3979 1.29778 24.2086 1.25724 24.0258 1.18581C23.8465 1.12348 23.6573 1.08294 23.4581 1.06419C23.1327 1.01799 22.8058 0.997721 22.4774 1.00338C21.7982 0.932811 21.11 0.92268 20.4129 0.972971C20.3158 0.985018 20.2298 1.01542 20.1548 1.06419C20.1032 1.06419 20.0516 1.06419 20 1.06419C19.6915 1.0593 19.399 1.12011 19.1226 1.24662C19.0882 1.24662 19.0538 1.24662 19.0194 1.24662C18.7262 1.23439 18.4509 1.2952 18.1936 1.42905C18.1764 1.42905 18.1591 1.42905 18.1419 1.42905C17.9033 1.44506 17.6796 1.50587 17.471 1.61148C16.4458 1.82216 15.448 2.12621 14.4774 2.52365C14.2367 2.55751 14.013 2.63859 13.8065 2.76689C13.5657 2.80076 13.342 2.88183 13.1355 3.01013C13.0783 3.01359 13.0266 3.03386 12.9807 3.07094C12.6366 3.14536 12.3096 3.26699 12 3.43581C11.9828 3.43581 11.9656 3.43581 11.9484 3.43581C11.6572 3.52292 11.3819 3.64454 11.1226 3.80067C11.1054 3.80067 11.0882 3.80067 11.071 3.80067C10.543 4.00109 10.0269 4.22406 9.52259 4.46959C9.07149 4.64385 8.62421 4.83642 8.18065 5.0473C6.25374 5.05142 4.32686 5.05142 2.40001 5.0473C2.27466 5.23224 2.22304 5.44508 2.24517 5.68581C2.17348 5.9758 2.13907 6.27987 2.14194 6.59797C2.07102 7.24238 2.028 7.89105 2.01291 8.54392C1.59036 8.66244 1.22907 8.90568 0.92904 9.27365C0.891424 9.58798 0.925835 9.89203 1.03227 10.1858C1.53639 11.4076 2.18155 12.5123 2.96775 13.5C2.24668 13.2221 1.58431 12.8065 0.980653 12.2534C0.452357 11.1976 0.177088 10.0625 0.154846 8.84797C0.283642 8.49357 0.507298 8.27057 0.825814 8.17905C0.877427 8.05743 0.92904 7.93581 0.980653 7.81419C1.17979 6.93359 1.33463 6.0417 1.44517 5.13851C1.48232 4.88215 1.55114 4.6389 1.65162 4.40878C2.34431 4.3486 3.04108 4.32833 3.74194 4.34797C4.3517 4.42422 4.97105 4.46476 5.60001 4.46959C6.42509 4.5405 7.2509 4.5709 8.07743 4.56081C10.9302 2.90332 13.9066 1.67697 17.0065 0.881755C17.3165 0.858495 17.6089 0.777416 17.8839 0.638511C18.5835 0.555052 19.2717 0.433431 19.9484 0.273647C21.1506 0.136321 22.3549 0.11605 23.5613 0.212836Z" fill="#090909"/>
<path fill-rule="evenodd" clip-rule="evenodd" d="M23.5613 0.212842C23.8313 0.209458 24.0893 0.249998 24.3355 0.334464C24.0655 0.337848 23.8074 0.297308 23.5613 0.212842Z" fill="#8D8D8D"/>
<path fill-rule="evenodd" clip-rule="evenodd" d="M24.3355 0.334467C24.6148 0.311666 24.8728 0.372477 25.1097 0.516899C24.8399 0.487813 24.5818 0.427003 24.3355 0.334467Z" fill="#9B9B9B"/>
<path fill-rule="evenodd" clip-rule="evenodd" d="M19.9484 0.273651C19.2717 0.433435 18.5835 0.555057 17.8839 0.638516C18.5576 0.455567 19.2457 0.333946 19.9484 0.273651Z" fill="#6D6D6D"/>
<path fill-rule="evenodd" clip-rule="evenodd" d="M17.8839 0.638519C17.6089 0.777423 17.3165 0.858502 17.0065 0.881763C17.2805 0.742962 17.573 0.661877 17.8839 0.638519Z" fill="#757575"/>
<path fill-rule="evenodd" clip-rule="evenodd" d="M26.4 0.881749C26.5369 0.876246 26.6573 0.916789 26.7613 1.00337C26.6244 1.00887 26.504 0.968332 26.4 0.881749Z" fill="#7C7C7C"/>
<path fill-rule="evenodd" clip-rule="evenodd" d="M22.4774 1.00337C21.7023 0.991897 20.9281 1.01217 20.1548 1.06418C20.2298 1.01542 20.3158 0.985013 20.4129 0.972967C21.11 0.922676 21.7982 0.932807 22.4774 1.00337Z" fill="#AAAAAA"/>
<path fill-rule="evenodd" clip-rule="evenodd" d="M26.8129 1.00337C27.1254 1.09564 27.4351 1.20712 27.7419 1.33783C27.7706 1.3611 27.7878 1.3915 27.7935 1.42905C27.4509 1.32167 27.124 1.17978 26.8129 1.00337Z" fill="#878787"/>
<path fill-rule="evenodd" clip-rule="evenodd" d="M20 1.06419C19.7242 1.1939 19.4317 1.25471 19.1226 1.24662C19.399 1.12011 19.6915 1.0593 20 1.06419Z" fill="#ACACAC"/>
<path fill-rule="evenodd" clip-rule="evenodd" d="M23.4581 1.06419C23.6573 1.08295 23.8465 1.12349 24.0258 1.18582C23.8199 1.20914 23.6307 1.16861 23.4581 1.06419Z" fill="#7E7E7E"/>
<path fill-rule="evenodd" clip-rule="evenodd" d="M19.0193 1.24662C18.7627 1.38405 18.4874 1.44486 18.1935 1.42905C18.4509 1.2952 18.7262 1.23439 19.0193 1.24662Z" fill="#A7A7A7"/>
<path fill-rule="evenodd" clip-rule="evenodd" d="M24.5936 1.30743C24.7173 1.2928 24.8205 1.33334 24.9032 1.42905C24.7795 1.44368 24.6762 1.40314 24.5936 1.30743Z" fill="#838383"/>
<path fill-rule="evenodd" clip-rule="evenodd" d="M25.0065 1.42905C25.1576 1.43301 25.2952 1.47355 25.4194 1.55067C25.2648 1.56321 25.1271 1.52266 25.0065 1.42905Z" fill="#6B6B6B"/>
<path fill-rule="evenodd" clip-rule="evenodd" d="M18.1419 1.42905C18.1204 1.47293 18.086 1.50333 18.0387 1.52026C17.8493 1.5536 17.66 1.584 17.471 1.61148C17.6796 1.50587 17.9033 1.44506 18.1419 1.42905Z" fill="#8A8A8A"/>
<path fill-rule="evenodd" clip-rule="evenodd" d="M14.4774 2.52365C14.2709 2.65195 14.0472 2.73303 13.8065 2.76689C14.013 2.6386 14.2367 2.55752 14.4774 2.52365Z" fill="#B2B2B2"/>
<path fill-rule="evenodd" clip-rule="evenodd" d="M13.8065 2.76689C13.5999 2.89519 13.3763 2.97627 13.1355 3.01013C13.3421 2.88184 13.5657 2.80076 13.8065 2.76689Z" fill="#ACACAC"/>
<path fill-rule="evenodd" clip-rule="evenodd" d="M12.9806 3.07095C12.671 3.23978 12.3441 3.3614 12 3.43582C12.3096 3.267 12.6365 3.14537 12.9806 3.07095Z" fill="#A2A2A2"/>
<path fill-rule="evenodd" clip-rule="evenodd" d="M11.9484 3.43581C11.925 3.49409 11.8906 3.54476 11.8452 3.58783C11.608 3.67697 11.3671 3.74792 11.1226 3.80067C11.3819 3.64454 11.6572 3.52292 11.9484 3.43581Z" fill="#B5B5B5"/>
<path fill-rule="evenodd" clip-rule="evenodd" d="M11.071 3.80067C10.7969 3.98201 10.5044 4.13403 10.1936 4.25676C9.97595 4.35917 9.75231 4.43012 9.52258 4.46959C10.0269 4.22406 10.543 4.00109 11.071 3.80067Z" fill="#BCBCBC"/>
<path fill-rule="evenodd" clip-rule="evenodd" d="M3.74194 4.34797C4.37145 4.3404 4.99081 4.38095 5.60001 4.46959C4.97105 4.46476 4.3517 4.42421 3.74194 4.34797Z" fill="#8D8D8D"/>
<path fill-rule="evenodd" clip-rule="evenodd" d="M20.1548 2.52364C20.4724 2.45351 20.7993 2.44337 21.1355 2.49324C25.0953 2.92223 28.8115 4.26007 32.2839 6.50675C32.732 6.94447 32.9986 7.50186 33.0839 8.17905C32.8688 7.84459 32.6193 7.55069 32.3355 7.29729C31.9143 6.93766 31.4842 6.59304 31.0452 6.26351C27.6367 4.15159 24.0067 2.90496 20.1548 2.52364Z" fill="#545454"/>
<path fill-rule="evenodd" clip-rule="evenodd" d="M36.5161 6.41553C36.7871 6.40349 37.0452 6.44405 37.2903 6.53716C37.0203 6.54056 36.7623 6.5 36.5161 6.41553Z" fill="#5A5A5A"/>
<path fill-rule="evenodd" clip-rule="evenodd" d="M2.24515 5.68581C2.24802 6.00392 2.21361 6.30796 2.14192 6.59797C2.13905 6.27987 2.17346 5.9758 2.24515 5.68581Z" fill="#AFAFAF"/>
<path fill-rule="evenodd" clip-rule="evenodd" d="M41.729 7.14527C41.9349 7.12192 42.1241 7.16248 42.2968 7.26689C42.0976 7.24816 41.9083 7.2076 41.729 7.14527Z" fill="#909090"/>
<path fill-rule="evenodd" clip-rule="evenodd" d="M36.2581 7.20609C36.68 7.22682 37.0929 7.26738 37.4968 7.32771C37.0713 7.35416 36.6584 7.31366 36.2581 7.20609Z" fill="#A9A9A9"/>
<path fill-rule="evenodd" clip-rule="evenodd" d="M19.5871 7.44933C19.8184 7.49956 20.0593 7.52996 20.3097 7.54054C21.2214 7.57095 22.1332 7.5811 23.0452 7.57095C25.4906 7.59892 27.9336 7.70023 30.3742 7.875C29.5918 7.93557 28.8005 7.95588 28 7.93581C25.6602 7.92213 23.3204 7.90182 20.9806 7.875C18.5118 7.81729 16.0344 7.77673 13.5484 7.75338C13.1355 7.75338 12.7226 7.75338 12.3097 7.75338C10.4857 7.70856 8.66204 7.64775 6.83871 7.57095C7.25311 7.51993 7.66602 7.44902 8.07742 7.35811C11.9145 7.30733 15.7511 7.33774 19.5871 7.44933Z" fill="#555555"/>
<path fill-rule="evenodd" clip-rule="evenodd" d="M19.5871 7.44933C20.7484 7.47395 21.9011 7.51445 23.0452 7.57095C22.1332 7.5811 21.2214 7.57095 20.3097 7.54054C20.0593 7.52996 19.8184 7.49956 19.5871 7.44933Z" fill="#727272"/>
<path fill-rule="evenodd" clip-rule="evenodd" d="M6.83871 7.57095C8.66204 7.64775 10.4857 7.70856 12.3097 7.75338C10.4168 7.75776 8.52434 7.72735 6.63226 7.66216C6.68713 7.58992 6.75598 7.55951 6.83871 7.57095Z" fill="#909090"/>
<path fill-rule="evenodd" clip-rule="evenodd" d="M13.5484 7.75337C16.0344 7.77672 18.5119 7.81728 20.9807 7.87499C18.494 7.89987 16.0166 7.85937 13.5484 7.75337Z" fill="#CBCBCB"/>
<path fill-rule="evenodd" clip-rule="evenodd" d="M30.3742 7.875C30.4828 7.85681 30.586 7.87706 30.6839 7.93581C29.7809 8.0165 28.8862 8.0165 28 7.93581C28.8005 7.95587 29.5918 7.93556 30.3742 7.875Z" fill="#ACACAC"/>
</g>
<path d="M7.8505 14H7.48118L8.54936 11.0909H8.913L9.98118 14H9.61186L8.74254 11.5511H8.71982L7.8505 14ZM7.98686 12.8636H9.4755V13.1761H7.98686V12.8636ZM10.3888 14V11.8182H11.2809C11.5157 11.8182 11.7023 11.8712 11.8406 11.9773C11.9788 12.0833 12.0479 12.2235 12.0479 12.3977C12.0479 12.5303 12.0086 12.633 11.93 12.706C11.8514 12.7779 11.7506 12.8267 11.6275 12.8523C11.708 12.8636 11.7861 12.892 11.8619 12.9375C11.9386 12.983 12.002 13.0455 12.0522 13.125C12.1024 13.2036 12.1275 13.3002 12.1275 13.4148C12.1275 13.5265 12.0991 13.6264 12.0423 13.7145C11.9854 13.8026 11.904 13.8722 11.7979 13.9233C11.6919 13.9744 11.565 14 11.4173 14H10.3888ZM10.707 13.6932H11.4173C11.5328 13.6932 11.6232 13.6657 11.6886 13.6108C11.7539 13.5559 11.7866 13.4811 11.7866 13.3864C11.7866 13.2737 11.7539 13.1851 11.6886 13.1207C11.6232 13.0554 11.5328 13.0227 11.4173 13.0227H10.707V13.6932ZM10.707 12.733H11.2809C11.3709 12.733 11.448 12.7206 11.5124 12.696C11.5768 12.6705 11.6261 12.6345 11.6602 12.5881C11.6952 12.5407 11.7127 12.4848 11.7127 12.4205C11.7127 12.3286 11.6744 12.2566 11.5977 12.2045C11.521 12.1515 11.4154 12.125 11.2809 12.125H10.707V12.733ZM12.5099 12.1307V11.8182H14.2827V12.1307H13.5668V14H13.2315V12.1307H12.5099ZM15.5447 14.0455C15.3478 14.0455 15.175 13.9986 15.0263 13.9048C14.8786 13.8111 14.763 13.6799 14.6797 13.5114C14.5973 13.3428 14.5561 13.1458 14.5561 12.9205C14.5561 12.6932 14.5973 12.4948 14.6797 12.3253C14.763 12.1558 14.8786 12.0241 15.0263 11.9304C15.175 11.8366 15.3478 11.7898 15.5447 11.7898C15.7417 11.7898 15.9141 11.8366 16.0618 11.9304C16.2105 12.0241 16.326 12.1558 16.4084 12.3253C16.4917 12.4948 16.5334 12.6932 16.5334 12.9205C16.5334 13.1458 16.4917 13.3428 16.4084 13.5114C16.326 13.6799 16.2105 13.8111 16.0618 13.9048C15.9141 13.9986 15.7417 14.0455 15.5447 14.0455ZM15.5447 13.7443C15.6944 13.7443 15.8175 13.706 15.9141 13.6293C16.0107 13.5526 16.0821 13.4517 16.1286 13.3267C16.175 13.2017 16.1982 13.0663 16.1982 12.9205C16.1982 12.7746 16.175 12.6387 16.1286 12.5128C16.0821 12.3868 16.0107 12.285 15.9141 12.2074C15.8175 12.1297 15.6944 12.0909 15.5447 12.0909C15.3951 12.0909 15.272 12.1297 15.1754 12.2074C15.0788 12.285 15.0073 12.3868 14.9609 12.5128C14.9145 12.6387 14.8913 12.7746 14.8913 12.9205C14.8913 13.0663 14.9145 13.2017 14.9609 13.3267C15.0073 13.4517 15.0788 13.5526 15.1754 13.6293C15.272 13.706 15.3951 13.7443 15.5447 13.7443ZM17.9315 14.0455C17.7269 14.0455 17.5508 13.9972 17.4031 13.9006C17.2553 13.804 17.1417 13.6709 17.0621 13.5014C16.9826 13.3319 16.9428 13.1383 16.9428 12.9205C16.9428 12.6989 16.9835 12.5033 17.065 12.3338C17.1474 12.1634 17.262 12.0303 17.4087 11.9347C17.5565 11.8381 17.7288 11.7898 17.9258 11.7898C18.0792 11.7898 18.2174 11.8182 18.3406 11.875C18.4637 11.9318 18.5645 12.0114 18.6431 12.1136C18.7217 12.2159 18.7705 12.3352 18.7894 12.4716H18.4542C18.4286 12.3722 18.3718 12.2841 18.2837 12.2074C18.1966 12.1297 18.0792 12.0909 17.9315 12.0909C17.8008 12.0909 17.6862 12.125 17.5877 12.1932C17.4902 12.2604 17.4139 12.3556 17.359 12.4787C17.305 12.6009 17.2781 12.7443 17.2781 12.9091C17.2781 13.0777 17.3046 13.2244 17.3576 13.3494C17.4116 13.4744 17.4873 13.5715 17.5849 13.6406C17.6834 13.7098 17.7989 13.7443 17.9315 13.7443C18.0186 13.7443 18.0977 13.7292 18.1687 13.6989C18.2397 13.6686 18.2998 13.625 18.3491 13.5682C18.3983 13.5114 18.4334 13.4432 18.4542 13.3636H18.7894C18.7705 13.4924 18.7236 13.6084 18.6488 13.7116C18.5749 13.8139 18.4769 13.8954 18.3548 13.956C18.2335 14.0156 18.0924 14.0455 17.9315 14.0455ZM19.9215 14.0511C19.7833 14.0511 19.6578 14.0251 19.5451 13.973C19.4324 13.92 19.3429 13.8438 19.2766 13.7443C19.2103 13.6439 19.1772 13.5227 19.1772 13.3807C19.1772 13.2557 19.2018 13.1544 19.2511 13.0767C19.3003 12.9981 19.3661 12.9366 19.4485 12.892C19.5309 12.8475 19.6218 12.8144 19.7212 12.7926C19.8216 12.7699 19.9225 12.7519 20.0238 12.7386C20.1564 12.7216 20.2638 12.7088 20.3462 12.7003C20.4296 12.6908 20.4902 12.6752 20.5281 12.6534C20.5669 12.6316 20.5863 12.5937 20.5863 12.5398V12.5284C20.5863 12.3883 20.5479 12.2794 20.4712 12.2017C20.3955 12.1241 20.2804 12.0852 20.1261 12.0852C19.966 12.0852 19.8406 12.1203 19.7496 12.1903C19.6587 12.2604 19.5948 12.3352 19.5579 12.4148L19.2397 12.3011C19.2965 12.1686 19.3723 12.0653 19.467 11.9915C19.5626 11.9167 19.6668 11.8646 19.7795 11.8352C19.8931 11.8049 20.0049 11.7898 20.1147 11.7898C20.1848 11.7898 20.2653 11.7983 20.3562 11.8153C20.448 11.8314 20.5366 11.8651 20.6218 11.9162C20.708 11.9673 20.7795 12.0445 20.8363 12.1477C20.8931 12.2509 20.9215 12.3892 20.9215 12.5625V14H20.5863V13.7045H20.5692C20.5465 13.7519 20.5086 13.8026 20.4556 13.8565C20.4026 13.9105 20.332 13.9564 20.244 13.9943C20.1559 14.0322 20.0484 14.0511 19.9215 14.0511ZM19.9727 13.75C20.1052 13.75 20.217 13.724 20.3079 13.6719C20.3997 13.6198 20.4689 13.5526 20.5153 13.4702C20.5626 13.3878 20.5863 13.3011 20.5863 13.2102V12.9034C20.5721 12.9205 20.5408 12.9361 20.4925 12.9503C20.4452 12.9635 20.3903 12.9754 20.3278 12.9858C20.2662 12.9953 20.2061 13.0038 20.1474 13.0114C20.0896 13.018 20.0427 13.0237 20.0067 13.0284C19.9196 13.0398 19.8382 13.0582 19.7624 13.0838C19.6876 13.1084 19.627 13.1458 19.5806 13.196C19.5352 13.2453 19.5124 13.3125 19.5124 13.3977C19.5124 13.5142 19.5555 13.6023 19.6417 13.6619C19.7288 13.7206 19.8391 13.75 19.9727 13.75ZM21.3402 14V13.6875H21.4197C21.4851 13.6875 21.5395 13.6747 21.5831 13.6491C21.6267 13.6226 21.6617 13.5767 21.6882 13.5114C21.7157 13.4451 21.7365 13.3532 21.7507 13.2358C21.7659 13.1174 21.7768 12.9669 21.7834 12.7841L21.8232 11.8182H23.2777V14H22.9425V12.1307H22.1413L22.1072 12.9091C22.0997 13.0881 22.0836 13.2457 22.0589 13.3821C22.0353 13.5175 21.9988 13.6312 21.9496 13.723C21.9013 13.8149 21.8369 13.884 21.7564 13.9304C21.6759 13.9768 21.575 14 21.4538 14H21.3402ZM24.7791 14.0455C24.5821 14.0455 24.4093 13.9986 24.2607 13.9048C24.1129 13.8111 23.9974 13.6799 23.9141 13.5114C23.8317 13.3428 23.7905 13.1458 23.7905 12.9205C23.7905 12.6932 23.8317 12.4948 23.9141 12.3253C23.9974 12.1558 24.1129 12.0241 24.2607 11.9304C24.4093 11.8366 24.5821 11.7898 24.7791 11.7898C24.9761 11.7898 25.1484 11.8366 25.2962 11.9304C25.4448 12.0241 25.5604 12.1558 25.6428 12.3253C25.7261 12.4948 25.7678 12.6932 25.7678 12.9205C25.7678 13.1458 25.7261 13.3428 25.6428 13.5114C25.5604 13.6799 25.4448 13.8111 25.2962 13.9048C25.1484 13.9986 24.9761 14.0455 24.7791 14.0455ZM24.7791 13.7443C24.9287 13.7443 25.0518 13.706 25.1484 13.6293C25.245 13.5526 25.3165 13.4517 25.3629 13.3267C25.4093 13.2017 25.4325 13.0663 25.4325 12.9205C25.4325 12.7746 25.4093 12.6387 25.3629 12.5128C25.3165 12.3868 25.245 12.285 25.1484 12.2074C25.0518 12.1297 24.9287 12.0909 24.7791 12.0909C24.6295 12.0909 24.5064 12.1297 24.4098 12.2074C24.3132 12.285 24.2417 12.3868 24.1953 12.5128C24.1489 12.6387 24.1257 12.7746 24.1257 12.9205C24.1257 13.0663 24.1489 13.2017 24.1953 13.3267C24.2417 13.4517 24.3132 13.5526 24.4098 13.6293C24.5064 13.706 24.6295 13.7443 24.7791 13.7443ZM27.7397 12.7557V13.0682H26.5352V12.7557H27.7397ZM26.6147 11.8182V14H26.2795V11.8182H26.6147ZM27.9954 11.8182V14H27.6602V11.8182H27.9954ZM29.6786 14V11.0909H31.609V11.598H30.2937V12.1662H30.7667C30.9968 12.1662 31.1952 12.2036 31.3619 12.2784C31.5295 12.3523 31.6587 12.4569 31.7496 12.5923C31.8406 12.7277 31.886 12.8873 31.886 13.071C31.886 13.2538 31.8406 13.4152 31.7496 13.5554C31.6587 13.6946 31.5295 13.8035 31.3619 13.8821C31.1952 13.9607 30.9968 14 30.7667 14H29.6786ZM30.2937 13.5057H30.7667C30.8765 13.5057 30.9693 13.4858 31.0451 13.446C31.1209 13.4053 31.1781 13.3518 31.217 13.2855C31.2567 13.2183 31.2766 13.1449 31.2766 13.0653C31.2766 12.9498 31.2326 12.8523 31.1445 12.7727C31.0574 12.6922 30.9315 12.652 30.7667 12.652H30.2937V13.5057ZM32.7855 14H32.1264L33.1307 11.0909H33.9233L34.9261 14H34.267L33.5384 11.7557H33.5156L32.7855 14ZM32.7443 12.8565H34.3011V13.3366H32.7443V12.8565ZM35.2763 14V11.0909H36.424C36.6446 11.0909 36.8326 11.133 36.9879 11.2173C37.1432 11.3007 37.2616 11.4167 37.343 11.5653C37.4254 11.7131 37.4666 11.8835 37.4666 12.0767C37.4666 12.2699 37.425 12.4403 37.3416 12.5881C37.2583 12.7358 37.1375 12.8509 36.9794 12.9332C36.8222 13.0156 36.6319 13.0568 36.4084 13.0568H35.6768V12.5639H36.3089C36.4273 12.5639 36.5249 12.5436 36.6016 12.5028C36.6792 12.4612 36.737 12.4039 36.7749 12.331C36.8137 12.2571 36.8331 12.1723 36.8331 12.0767C36.8331 11.9801 36.8137 11.8958 36.7749 11.8239C36.737 11.7509 36.6792 11.6946 36.6016 11.6548C36.5239 11.6141 36.4254 11.5938 36.3061 11.5938H35.8913V14H35.2763ZM40.4329 12.1094H39.8107C39.7994 12.0289 39.7762 11.9574 39.7411 11.8949C39.7061 11.8314 39.6611 11.7775 39.6062 11.733C39.5513 11.6884 39.4878 11.6544 39.4158 11.6307C39.3448 11.607 39.2676 11.5952 39.1843 11.5952C39.0337 11.5952 38.9026 11.6326 38.7908 11.7074C38.6791 11.7812 38.5924 11.8892 38.5309 12.0312C38.4693 12.1723 38.4386 12.3437 38.4386 12.5455C38.4386 12.7528 38.4693 12.9271 38.5309 13.0682C38.5934 13.2093 38.6805 13.3158 38.7923 13.3878C38.904 13.4598 39.0333 13.4957 39.18 13.4957C39.2624 13.4957 39.3387 13.4848 39.4087 13.4631C39.4798 13.4413 39.5427 13.4096 39.5977 13.3679C39.6526 13.3253 39.698 13.2737 39.734 13.2131C39.771 13.1525 39.7965 13.0833 39.8107 13.0057L40.4329 13.0085C40.4168 13.142 40.3765 13.2708 40.3121 13.3949C40.2487 13.518 40.163 13.6283 40.055 13.7259C39.948 13.8224 39.8202 13.8991 39.6715 13.956C39.5238 14.0118 39.3567 14.0398 39.1701 14.0398C38.9106 14.0398 38.6786 13.9811 38.4741 13.8636C38.2705 13.7462 38.1095 13.5762 37.9911 13.3537C37.8737 13.1312 37.815 12.8617 37.815 12.5455C37.815 12.2282 37.8746 11.9583 37.994 11.7358C38.1133 11.5133 38.2752 11.3437 38.4798 11.2273C38.6843 11.1098 38.9144 11.0511 39.1701 11.0511C39.3387 11.0511 39.4949 11.0748 39.6388 11.1222C39.7837 11.1695 39.9121 11.2386 40.0238 11.3295C40.1355 11.4195 40.2264 11.5298 40.2965 11.6605C40.3675 11.7912 40.413 11.9408 40.4329 12.1094Z" fill="black"/>
</g>
<defs>
<clipPath id="clip0_1_3">
<rect width="48" height="16" fill="white"/>
</clipPath>
<clipPath id="clip1_1_3">
<rect width="48" height="18" fill="white"/>
</clipPath>
</defs>
</svg>
